<svg xmlns="http://www.w3.org/2000/svg" version="1.1" xmlns:xlink="http://www.w3.org/1999/xlink" xmlns:svgjs="http://svgjs.dev/svgjs" width="1500" height="1500" viewBox="0 0 1500 1500"><rect width="1500" height="1500" fill="#000000"></rect><g transform="matrix(0.6666666666666666,0,0,0.6666666666666666,249.78425655976667,249.78425655976673)"><svg viewBox="0 0 343 343" data-background-color="#000000" preserveAspectRatio="xMidYMid meet" height="1500" width="1500" xmlns="http://www.w3.org/2000/svg" xmlns:xlink="http://www.w3.org/1999/xlink"><g id="tight-bounds" transform="matrix(1,0,0,1,0.0740000000000407,0.07400000000001228)"><svg viewBox="0 0 342.85155851775386 342.85155851775386" height="342.85155851775386" width="342.85155851775386"><rect width="342.852" height="342.852" fill="url(#6f5d3810-56a8-42b5-afa5-b1fb262af63f)" mask="url(#59fbd39e-ec13-4311-b93c-9cdfcfe9d7e0)" data-fill-palette-color="tertiary"></rect><g><svg></svg></g><g><svg viewBox="0 0 342.85155851775386 342.85155851775386" height="342.85155851775386" width="342.85155851775386"><g><path d="M0 171.426c0-94.676 76.75-171.426 171.426-171.426 94.676 0 171.426 76.75 171.426 171.426 0 94.676-76.75 171.426-171.426 171.426-94.676 0-171.426-76.75-171.426-171.426zM171.426 340.846c93.568 0 169.42-75.852 169.42-169.42 0-93.568-75.852-169.42-169.42-169.42-93.568 0-169.42 75.852-169.42 169.42 0 93.568 75.852 169.42 169.42 169.42z" data-fill-palette-color="tertiary" fill="url(#6f5d3810-56a8-42b5-afa5-b1fb262af63f)" stroke="transparent"></path><ellipse rx="164.56874808852186" ry="164.56874808852186" cx="171.42577925887693" cy="171.42577925887693" fill="url(#6f5d3810-56a8-42b5-afa5-b1fb262af63f)" stroke="transparent" stroke-width="0" fill-opacity="1" data-fill-palette-color="tertiary"></ellipse></g><g transform="matrix(1,0,0,1,64.84655864529837,150.33786757011063)"><svg viewBox="0 0 213.1584412271571 42.17582337753261" height="42.17582337753261" width="213.1584412271571"><g><svg viewBox="0 0 213.1584412271571 42.17582337753261" height="42.17582337753261" width="213.1584412271571"><g><svg viewBox="0 0 213.1584412271571 42.17582337753261" height="42.17582337753261" width="213.1584412271571"><g><svg viewBox="0 0 213.1584412271571 42.17582337753261" height="42.17582337753261" width="213.1584412271571"><g id="textblocktransform"><svg viewBox="0 0 213.1584412271571 42.17582337753261" height="42.17582337753261" width="213.1584412271571" id="textblock"><g><svg viewBox="0 0 213.1584412271571 22.243740956339625" height="22.243740956339625" width="213.1584412271571"><g transform="matrix(1,0,0,1,0,0)"><svg width="213.1584412271571" viewBox="0.34375 -40.45 454.66625 47.45" height="22.243740956339625" data-palette-color="#000000"><path d="M28.15-1.2L17.15-34.8 6.2-1.2 6.2-1.25Q5.9-0.5 5.38-0.03 4.85 0.45 4.1 0.45L4.1 0.45Q3.7 0.45 3.33 0.38 2.95 0.3 2.55 0.2L2.55 0.2 2.6 0.2Q-0.25-0.7 0.5-3L0.5-3 11.9-37.65Q12.15-38.45 12.78-39 13.4-39.55 14.25-39.65L14.25-39.65Q15.1-39.8 15.9-39.88 16.7-39.95 17.15-39.95L17.15-39.95Q17.6-39.95 18.4-39.88 19.2-39.8 20.05-39.7L20.05-39.7Q20.75-39.6 21.43-38.95 22.1-38.3 22.45-37.65L22.45-37.65Q25.25-29.05 28.13-20.33 31-11.6 33.8-3L33.8-3Q34.5-0.7 31.7 0.2L31.7 0.2Q31.3 0.3 30.98 0.38 30.65 0.45 30.25 0.45L30.25 0.45Q29.55 0.45 28.98-0.03 28.4-0.5 28.15-1.25L28.15-1.25 28.15-1.2ZM20.9-12L20.9-12Q20.9-10.4 19.78-9.28 18.65-8.15 17.05-8.15L17.05-8.15Q15.45-8.15 14.35-9.28 13.25-10.4 13.25-12L13.25-12Q13.25-13.6 14.35-14.73 15.45-15.85 17.05-15.85L17.05-15.85Q18.65-15.85 19.78-14.73 20.9-13.6 20.9-12ZM43.35-21.75L43.35-2.1Q43.35 0.3 40.6 0.3L40.6 0.3Q37.85 0.3 37.85-2.1L37.85-2.1 37.85-22.2Q37.85-24.25 38.5-25.75 39.15-27.25 40.55-28.2L40.55-28.2Q43.2-30.1 45.85-30.1L45.85-30.1 53.9-30.1Q56.45-30.1 59.2-28.2L59.2-28.2Q61.9-26.3 61.9-22.2L61.9-22.2 61.9-2.1Q61.9 0.3 59.15 0.3L59.15 0.3Q56.4 0.3 56.4-2.1L56.4-2.1 56.4-21.75Q56.4-23.05 55.6-24.25L55.6-24.25 55.65-24.2Q55-25.4 53-25.4L53-25.4 46.75-25.4Q44.7-25.4 44.05-24.2L44.05-24.2Q43.35-23.15 43.35-21.75L43.35-21.75ZM73.85-21.75L73.85-2.1Q73.85 0.3 71.1 0.3L71.1 0.3Q68.35 0.3 68.35-2.1L68.35-2.1 68.35-22.2Q68.35-24.25 69-25.75 69.65-27.25 71.05-28.2L71.05-28.2Q73.7-30.1 76.35-30.1L76.35-30.1 84.4-30.1Q86.95-30.1 89.7-28.2L89.7-28.2Q92.4-26.3 92.4-22.2L92.4-22.2 92.4-2.1Q92.4 0.3 89.65 0.3L89.65 0.3Q86.9 0.3 86.9-2.1L86.9-2.1 86.9-21.75Q86.9-23.05 86.1-24.25L86.1-24.25 86.15-24.2Q85.5-25.4 83.5-25.4L83.5-25.4 77.25-25.4Q75.2-25.4 74.55-24.2L74.55-24.2Q73.85-23.15 73.85-21.75L73.85-21.75ZM112.94 0L106.39 0Q104.84 0 103.44-0.43 102.04-0.85 100.74-1.65L100.74-1.65 100.74-1.6Q98.29-3.15 98.29-7.3L98.29-7.3 98.29-9.75Q98.29-11.8 99.02-13.33 99.74-14.85 101.04-15.75L101.04-15.75 100.99-15.75Q102.24-16.6 103.64-17.03 105.04-17.45 106.34-17.45L106.34-17.45 117.39-17.45 117.39-22.1Q117.39-23.35 116.62-24.38 115.84-25.4 113.99-25.4L113.99-25.4 108.14-25.4Q106.24-25.4 105.52-24.48 104.79-23.55 104.79-22.3L104.79-22.3 104.79-21.9Q104.79-19.3 101.99-19.3L101.99-19.3Q99.19-19.3 99.19-21.9L99.19-21.9 99.19-22.35Q99.19-24.4 99.92-25.8 100.64-27.2 101.89-28.15L101.89-28.15 101.84-28.15Q103.14-29 104.57-29.55 105.99-30.1 107.29-30.1L107.29-30.1 114.89-30.1Q116.14-30.1 117.57-29.55 118.99-29 120.24-28.15L120.24-28.15 120.19-28.15Q121.49-27.2 122.19-25.68 122.89-24.15 122.89-22.15L122.89-22.15 122.89-2.1Q122.89 0.3 120.14 0.3L120.14 0.3Q119.59 0.3 119.12 0.25 118.64 0.2 118.27-0.03 117.89-0.25 117.67-0.68 117.44-1.1 117.44-1.8L117.44-1.8 117.39-12.75 107.29-12.75Q106.19-12.75 105.59-12.5 104.99-12.25 104.64-11.7L104.64-11.7Q104.24-10.85 104.07-10.38 103.89-9.9 103.89-9.3L103.89-9.3 103.89-7.35Q103.89-6.05 104.67-5.38 105.44-4.7 107.34-4.7L107.34-4.7 112.94-4.7Q114.79-4.7 114.79-2.35L114.79-2.35Q114.79-1.35 114.34-0.68 113.89 0 112.94 0L112.94 0ZM145.39 0L139.44 0Q137.64 0 137.54-2.35L137.54-2.35Q137.54-4.7 139.44-4.7L139.44-4.7 144.49-4.7Q146.34-4.7 147.12-5.75 147.89-6.8 147.89-8L147.89-8 147.89-22.1Q147.89-23.35 147.12-24.43 146.34-25.5 144.44-25.4L144.44-25.4 134.84-25.4 134.84 4.65Q134.84 7 132.09 7L132.09 7Q129.34 7 129.34 4.6L129.34 4.6 129.34-27.15Q129.34-28.9 130.24-29.5 131.14-30.1 132.44-30.1L132.44-30.1 145.39-30.1Q146.69-30.1 148.02-29.65 149.34-29.2 150.74-28.4L150.74-28.4Q151.94-27.55 152.67-26.03 153.39-24.5 153.39-22.45L153.39-22.45 153.39-7.65Q153.39-3.55 150.74-1.8L150.74-1.8Q147.94 0 145.39 0L145.39 0ZM167.64-30.1L175.64-30.1Q176.94-30.1 178.31-29.55 179.69-29 180.99-28.15L180.99-28.15 180.94-28.15Q182.24-27.2 182.94-25.68 183.64-24.15 183.64-22.15L183.64-22.15 183.64-7.95Q183.64-3.85 180.94-1.9L180.94-1.9Q178.29 0 175.64 0L175.64 0 167.64 0Q166.34 0 164.99-0.45 163.64-0.9 162.34-1.9L162.34-1.9Q159.64-3.8 159.64-7.95L159.64-7.95 159.64-22.15Q159.64-24.15 160.34-25.68 161.04-27.2 162.34-28.15L162.34-28.15 162.29-28.15Q163.54-29 164.94-29.55 166.34-30.1 167.64-30.1L167.64-30.1ZM168.54-4.7L174.74-4.7Q176.59-4.7 177.36-5.75 178.14-6.8 178.14-8L178.14-8 178.14-22.1Q178.14-23.35 177.36-24.38 176.59-25.4 174.74-25.4L174.74-25.4 168.54-25.4Q166.69-25.4 165.91-24.38 165.14-23.35 165.14-22.1L165.14-22.1 165.14-8Q165.14-6.8 165.91-5.75 166.69-4.7 168.54-4.7L168.54-4.7ZM197.94-30.1L205.94-30.1Q207.24-30.1 208.61-29.55 209.99-29 211.29-28.15L211.29-28.15 211.24-28.15Q212.54-27.2 213.24-25.68 213.94-24.15 213.94-22.15L213.94-22.15 213.94-7.95Q213.94-3.85 211.24-1.9L211.24-1.9Q208.59 0 205.94 0L205.94 0 197.94 0Q196.64 0 195.29-0.45 193.94-0.9 192.64-1.9L192.64-1.9Q189.94-3.8 189.94-7.95L189.94-7.95 189.94-22.15Q189.94-24.15 190.64-25.68 191.34-27.2 192.64-28.15L192.64-28.15 192.59-28.15Q193.84-29 195.24-29.55 196.64-30.1 197.94-30.1L197.94-30.1ZM198.84-4.7L205.04-4.7Q206.89-4.7 207.66-5.75 208.44-6.8 208.44-8L208.44-8 208.44-22.1Q208.44-23.35 207.66-24.38 206.89-25.4 205.04-25.4L205.04-25.4 198.84-25.4Q196.99-25.4 196.21-24.38 195.44-23.35 195.44-22.1L195.44-22.1 195.44-8Q195.44-6.8 196.21-5.75 196.99-4.7 198.84-4.7L198.84-4.7ZM225.63-22.75L225.63-2.1Q225.63 0.3 222.88 0.3L222.88 0.3Q220.03 0.3 220.03-2.1L220.03-2.1 220.03-22.8Q220.03-26.9 222.48-28.5L222.48-28.5Q224.93-30.1 228.13-30.1L228.13-30.1 233.83-30.1Q235.68-30.1 235.68-27.75L235.68-27.75Q235.78-25.4 233.83-25.4L233.83-25.4 228.53-25.4Q226.73-25.4 226.18-24.7 225.63-24 225.63-22.75L225.63-22.75ZM245.43-21.75L245.43-2.1Q245.43 0.3 242.68 0.3L242.68 0.3Q239.93 0.3 239.93-2.1L239.93-2.1 239.93-22.2Q239.93-24.25 240.58-25.75 241.23-27.25 242.63-28.2L242.63-28.2Q245.28-30.1 247.93-30.1L247.93-30.1 255.98-30.1Q258.53-30.1 261.28-28.2L261.28-28.2Q263.98-26.3 263.98-22.2L263.98-22.2 263.98-2.1Q263.98 0.3 261.23 0.3L261.23 0.3Q258.48 0.3 258.48-2.1L258.48-2.1 258.48-21.75Q258.48-23.05 257.68-24.25L257.68-24.25 257.73-24.2Q257.08-25.4 255.08-25.4L255.08-25.4 248.83-25.4Q246.78-25.4 246.13-24.2L246.13-24.2Q245.43-23.15 245.43-21.75L245.43-21.75ZM275.93-22.15L275.93-8Q275.93-6.8 276.7-5.75 277.48-4.7 279.33-4.7L279.33-4.7 285.58-4.7Q287.43-4.7 288.2-5.63 288.98-6.55 288.98-7.75L288.98-7.75 288.98-8.3Q288.98-10.65 291.73-10.65L291.73-10.65Q294.48-10.65 294.48-8.3L294.48-8.3 294.48-7.7Q294.48-5.6 293.8-4.25 293.13-2.9 291.78-1.9L291.78-1.9Q289.13 0 286.48 0L286.48 0 278.08 0Q275.43 0 272.93-1.9L272.93-1.9Q271.73-2.9 271.08-4.42 270.43-5.95 270.43-7.95L270.43-7.95 270.43-22.2Q270.43-26.25 272.93-28.2L272.93-28.2Q274.18-29.1 275.5-29.63 276.83-30.15 278.08-30.15L278.08-30.15 286.48-30.15Q287.68-30.15 289.13-29.68 290.58-29.2 291.83-28.4L291.83-28.4Q293.03-27.55 293.75-26.05 294.48-24.55 294.48-22.5L294.48-22.5 294.48-15.75Q294.48-14.6 293.8-13.7 293.13-12.8 291.33-12.8L291.33-12.8 280.53-12.8Q278.73-12.8 278.63-15.15L278.63-15.15Q278.63-17.5 280.53-17.5L280.53-17.5 289.03-17.5 288.98-22.15Q288.98-23.4 288.2-24.43 287.43-25.45 285.58-25.45L285.58-25.45 279.33-25.45Q277.48-25.45 276.7-24.43 275.93-23.4 275.93-22.15L275.93-22.15ZM309.73-17.5L317.08-17.5Q318.33-17.5 319.75-16.93 321.18-16.35 322.43-15.5L322.43-15.5 322.38-15.5Q323.68-14.55 324.38-13.05 325.08-11.55 325.08-9.45L325.08-9.45 325.08-7.95Q325.08-3.85 322.38-1.9L322.38-1.9Q321.08-0.9 319.73-0.45 318.38 0 317.08 0L317.08 0 308.58 0Q307.28 0 305.93-0.45 304.58-0.9 303.28-1.9L303.28-1.9Q300.58-3.8 300.58-7.95L300.58-7.95 300.58-8.55Q300.58-10.7 303.33-10.65L303.33-10.65Q306.13-10.65 306.13-8.55L306.13-8.55 306.13-8Q306.13-6.8 306.88-5.75 307.63-4.7 309.53-4.7L309.53-4.7 316.13-4.7Q318.03-4.7 318.78-5.75 319.53-6.8 319.53-8L319.53-8 319.53-9.4Q319.53-10.05 319.35-10.65 319.18-11.25 318.78-11.73 318.38-12.2 317.73-12.5 317.08-12.8 316.13-12.8L316.13-12.8 308.83-12.8Q306.28-12.8 303.48-14.6L303.48-14.6Q300.83-16.3 300.83-20.45L300.83-20.45 300.83-22.15Q300.83-24.15 301.53-25.68 302.23-27.2 303.53-28.15L303.53-28.15 303.48-28.15Q304.73-29 306.13-29.55 307.53-30.1 308.83-30.1L308.83-30.1 316.83-30.1Q318.13-30.1 319.5-29.55 320.88-29 322.18-28.15L322.18-28.15 322.13-28.15Q323.43-27.2 324.13-25.68 324.83-24.15 324.83-22.15L324.83-22.15 324.83-21.7Q324.83-20.65 324.13-20.18 323.43-19.7 322.08-19.65L322.08-19.65Q319.33-19.6 319.33-21.7L319.33-21.7 319.33-22.1Q319.33-23.35 318.55-24.38 317.78-25.4 315.93-25.4L315.93-25.4 309.73-25.4Q307.88-25.4 307.1-24.38 306.33-23.35 306.33-22.1L306.33-22.1 306.33-20.9Q306.33-19.6 307.1-18.55 307.88-17.5 309.73-17.5L309.73-17.5ZM337.07-25.4L337.07-2.1Q337.07 0.3 334.32 0.3L334.32 0.3Q331.57 0.3 331.57-2.1L331.57-2.1 331.57-37.6Q331.57-40 334.32-40L334.32-40Q337.07-40 337.07-37.6L337.07-37.6 337.07-30.1 347.62-30.1Q350.17-30.1 352.92-28.2L352.92-28.2Q355.62-26.3 355.62-22.2L355.62-22.2 355.62-2.1Q355.62 0.3 352.87 0.3L352.87 0.3Q350.12 0.3 350.12-2.1L350.12-2.1 350.12-21.75Q350.12-23.05 349.32-24.25L349.32-24.25 349.37-24.2Q348.72-25.4 346.72-25.4L346.72-25.4 337.07-25.4ZM376.27-15.6L372.72-1.55 372.77-1.6Q372.42-0.45 371.42-0.1 370.42 0.25 369.42 0.25L369.42 0.25Q368.47 0.25 367.44-0.1 366.42-0.45 366.12-1.6L366.12-1.6 366.17-1.55 359.62-27.45Q359.02-29.55 361.57-30.25L361.57-30.25Q364.02-30.9 364.72-28.55L364.72-28.55 364.72-28.6 368.77-12.3 370.12-12.3 374.17-28.6Q374.42-29.65 375.3-29.98 376.17-30.3 376.92-30.3L376.92-30.3Q377.77-30.3 378.6-29.93 379.42-29.55 379.72-28.6L379.72-28.6Q380.17-26.8 380.55-25.25 380.92-23.7 381.27-22.25 381.62-20.8 381.94-19.4 382.27-18 382.67-16.5L382.67-16.5 383.77-12.25 385.12-12.25Q386.12-16.3 387.15-20.43 388.17-24.55 389.17-28.6L389.17-28.6 389.12-28.55Q389.82-30.9 392.27-30.25L392.27-30.25Q394.82-29.65 394.22-27.45L394.22-27.45 387.72-1.55 387.77-1.6Q387.47-0.45 386.44-0.1 385.42 0.25 384.42 0.25L384.42 0.25Q383.47 0.25 382.47-0.1 381.47-0.45 381.12-1.6L381.12-1.6 381.17-1.55 377.62-15.6 376.27-15.6ZM412.22 0L405.67 0Q404.12 0 402.72-0.43 401.32-0.85 400.02-1.65L400.02-1.65 400.02-1.6Q397.57-3.15 397.57-7.3L397.57-7.3 397.57-9.75Q397.57-11.8 398.29-13.33 399.02-14.85 400.32-15.75L400.32-15.75 400.27-15.75Q401.52-16.6 402.92-17.03 404.32-17.45 405.62-17.45L405.62-17.45 416.67-17.45 416.67-22.1Q416.67-23.35 415.89-24.38 415.12-25.4 413.27-25.4L413.27-25.4 407.42-25.4Q405.52-25.4 404.79-24.48 404.07-23.55 404.07-22.3L404.07-22.3 404.07-21.9Q404.07-19.3 401.27-19.3L401.27-19.3Q398.47-19.3 398.47-21.9L398.47-21.9 398.47-22.35Q398.47-24.4 399.19-25.8 399.92-27.2 401.17-28.15L401.17-28.15 401.12-28.15Q402.42-29 403.84-29.55 405.27-30.1 406.57-30.1L406.57-30.1 414.17-30.1Q415.42-30.1 416.84-29.55 418.27-29 419.52-28.15L419.52-28.15 419.47-28.15Q420.77-27.2 421.47-25.68 422.17-24.15 422.17-22.15L422.17-22.15 422.17-2.1Q422.17 0.3 419.42 0.3L419.42 0.3Q418.87 0.3 418.39 0.25 417.92 0.2 417.54-0.03 417.17-0.25 416.94-0.68 416.72-1.1 416.72-1.8L416.72-1.8 416.67-12.75 406.57-12.75Q405.47-12.75 404.87-12.5 404.27-12.25 403.92-11.7L403.92-11.7Q403.52-10.85 403.34-10.38 403.17-9.9 403.17-9.3L403.17-9.3 403.17-7.35Q403.17-6.05 403.94-5.38 404.72-4.7 406.62-4.7L406.62-4.7 412.22-4.7Q414.07-4.7 414.07-2.35L414.07-2.35Q414.07-1.35 413.62-0.68 413.17 0 412.22 0L412.22 0ZM434.01-22.75L434.01-2.1Q434.01 0.3 431.26 0.3L431.26 0.3Q428.42 0.3 428.42-2.1L428.42-2.1 428.42-22.8Q428.42-26.9 430.87-28.5L430.87-28.5Q433.31-30.1 436.51-30.1L436.51-30.1 442.21-30.1Q444.06-30.1 444.06-27.75L444.06-27.75Q444.17-25.4 442.21-25.4L442.21-25.4 436.92-25.4Q435.12-25.4 434.56-24.7 434.01-24 434.01-22.75L434.01-22.75ZM453.96-27.9L453.96-2.1Q453.96 0.3 451.21 0.3L451.21 0.3Q448.41 0.3 448.41-2.1L448.41-2.1 448.41-27.9Q448.41-30.3 451.21-30.3L451.21-30.3Q453.96-30.3 453.96-27.9L453.96-27.9ZM455.01-36.6L455.01-36.6Q455.01-35 453.91-33.9 452.81-32.8 451.21-32.8L451.21-32.8Q449.61-32.8 448.49-33.9 447.36-35 447.36-36.6L447.36-36.6Q447.36-38.25 448.49-39.35 449.61-40.45 451.21-40.45L451.21-40.45Q452.81-40.45 453.91-39.35 455.01-38.25 455.01-36.6Z" opacity="1" transform="matrix(1,0,0,1,0,0)" fill="#000000" class="wordmark-text-0" data-fill-palette-color="quaternary" id="text-0"></path></svg></g></svg></g><g transform="matrix(1,0,0,1,0,27.494954346348457)"><svg viewBox="0 0 41.44075010683765 14.680869031184153" height="14.680869031184153" width="41.44075010683765"><g transform="matrix(1,0,0,1,0,0)"><svg width="41.44075010683765" viewBox="1.75 -39.65 142.53 50.5" height="14.680869031184153" data-palette-color="#000000"><path d="M15.25-35.25Q18.1-35.25 20.35-34.23 22.6-33.2 24.6-31.25L24.6-31.25 21.4-27.95Q19.85-29.3 18.5-29.88 17.15-30.45 15.45-30.45L15.45-30.45Q12.15-30.45 10.28-27.5 8.4-24.55 8.4-17.3L8.4-17.3Q8.4-12.2 9.08-9.33 9.75-6.45 11.08-5.3 12.4-4.15 14.55-4.15L14.55-4.15Q16.8-4.15 18.65-5.4L18.65-5.4 18.65-14.75 14.75-14.75 14.1-19.5 24.7-19.5 24.7-2.6Q22.55-1.05 19.93-0.18 17.3 0.7 14.6 0.7L14.6 0.7Q8.15 0.7 4.95-3.68 1.75-8.05 1.75-17.3L1.75-17.3Q1.75-23.3 3.53-27.33 5.3-31.35 8.35-33.3 11.4-35.25 15.25-35.25L15.25-35.25ZM29.75-26.45L35.9-26.45 35.9 0 29.75 0 29.75-26.45ZM32.8-39.65Q34.45-39.65 35.47-38.6 36.5-37.55 36.5-35.9L36.5-35.9Q36.5-34.3 35.47-33.25 34.45-32.2 32.8-32.2L32.8-32.2Q31.15-32.2 30.12-33.25 29.1-34.3 29.1-35.9L29.1-35.9Q29.1-37.55 30.12-38.6 31.15-39.65 32.8-39.65L32.8-39.65ZM53.25-27.1Q54.4-27.1 55.3-26.75L55.3-26.75 54.3-20.85Q53.3-21.1 52.45-21.1L52.45-21.1Q50.55-21.1 49.45-19.45 48.35-17.8 47.75-14.55L47.75-14.55 47.75 0 41.6 0 41.6-26.45 46.95-26.45 47.4-21.85Q49.25-27.1 53.25-27.1L53.25-27.1ZM63.74 0.75Q61.04 0.75 59.47-0.93 57.89-2.6 57.89-5.4L57.89-5.4 57.89-37.05 64.04-37.7 64.04-5.65Q64.04-5 64.34-4.6 64.64-4.2 65.24-4.2L65.24-4.2Q65.59-4.2 65.92-4.3 66.24-4.4 66.34-4.4L66.34-4.4 67.54-0.2Q65.84 0.75 63.74 0.75L63.74 0.75ZM77.94-27.15Q82.64-27.15 85.89-24.05L85.89-24.05 83.54-20.7Q82.14-21.7 80.89-22.2 79.64-22.7 78.34-22.7L78.34-22.7Q76.89-22.7 76.07-21.93 75.24-21.15 75.24-19.8L75.24-19.8Q75.24-18.45 76.17-17.63 77.09-16.8 79.89-15.7L79.89-15.7Q83.34-14.35 84.99-12.5 86.64-10.65 86.64-7.55L86.64-7.55Q86.64-3.7 83.94-1.48 81.24 0.75 77.09 0.75L77.09 0.75Q74.39 0.75 72.12-0.23 69.84-1.2 68.14-2.95L68.14-2.95 71.14-6.25Q73.94-3.8 76.84-3.8L76.84-3.8Q78.49-3.8 79.44-4.67 80.39-5.55 80.39-7.1L80.39-7.1Q80.39-8.25 79.99-8.97 79.59-9.7 78.59-10.33 77.59-10.95 75.59-11.7L75.59-11.7Q72.14-13.05 70.67-14.85 69.19-16.65 69.19-19.45L69.19-19.45Q69.19-22.8 71.57-24.98 73.94-27.15 77.94-27.15L77.94-27.15ZM108.39-34.55Q114.64-34.55 117.91-31.78 121.19-29 121.19-23.6L121.19-23.6Q121.19-17.85 117.96-15 114.74-12.15 108.84-12.15L108.84-12.15 106.84-12.15 106.84 0 100.49 0 100.49-34.55 108.39-34.55ZM108.49-16.9Q111.74-16.9 113.19-18.4 114.64-19.9 114.64-23.55L114.64-23.55Q114.64-26.85 113.19-28.35 111.74-29.85 108.54-29.85L108.54-29.85 106.84-29.85 106.84-16.9 108.49-16.9ZM142.73-29.85L144.28-25.1Q143.23-24.6 141.76-24.4 140.28-24.2 138.08-24.2L138.08-24.2Q140.18-23.2 141.21-21.53 142.23-19.85 142.23-17.4L142.23-17.4Q142.23-13.4 139.78-10.95 137.33-8.5 133.13-8.5L133.13-8.5Q131.88-8.5 130.58-8.9L130.58-8.9Q129.68-8.15 129.68-6.85L129.68-6.85Q129.68-5.85 130.23-5.35 130.78-4.85 132.28-4.85L132.28-4.85 135.08-4.85Q139.08-4.85 141.43-2.78 143.78-0.7 143.78 2.5L143.78 2.5Q143.78 6.3 140.86 8.58 137.93 10.85 132.53 10.85L132.53 10.85Q126.83 10.85 124.56 8.75 122.28 6.65 122.28 2.6L122.28 2.6 127.73 2.6Q127.73 4.75 128.73 5.65 129.73 6.55 132.58 6.55L132.58 6.55Q135.33 6.55 136.48 5.6 137.63 4.65 137.63 2.9L137.63 2.9Q137.63 1.2 136.68 0.4 135.73-0.4 133.73-0.4L133.73-0.4 131.83-0.4Q128.03-0.4 126.28-1.75 124.53-3.1 124.53-5.45L124.53-5.45Q124.53-6.8 125.26-8.03 125.98-9.25 127.23-10.2L127.23-10.2Q125.18-11.5 124.23-13.3 123.28-15.1 123.28-17.7L123.28-17.7Q123.28-22.05 125.88-24.58 128.48-27.1 132.88-27.1L132.88-27.1Q136.13-27.1 138.26-27.8 140.38-28.5 142.73-29.85L142.73-29.85ZM132.88-23Q131.13-23 130.23-21.75 129.33-20.5 129.33-17.8L129.33-17.8Q129.33-15.25 130.23-13.88 131.13-12.5 132.83-12.5L132.83-12.5Q134.58-12.5 135.43-13.73 136.28-14.95 136.28-17.85L136.28-17.85Q136.28-20.55 135.46-21.78 134.63-23 132.88-23L132.88-23Z" opacity="1" transform="matrix(1,0,0,1,0,0)" fill="#000000" class="slogan-text-1" data-fill-palette-color="quaternary" id="text-1"></path></svg></g></svg></g></svg></g></svg></g><g></g></svg></g></svg></g></svg></g></svg></g><defs></defs><mask id="59fbd39e-ec13-4311-b93c-9cdfcfe9d7e0"><g id="SvgjsG1022"><svg viewBox="0 0 342.85155851775386 342.85155851775386" height="342.85155851775386" width="342.85155851775386"><g><svg></svg></g><g><svg viewBox="0 0 342.85155851775386 342.85155851775386" height="342.85155851775386" width="342.85155851775386"><g><path d="M0 171.426c0-94.676 76.75-171.426 171.426-171.426 94.676 0 171.426 76.75 171.426 171.426 0 94.676-76.75 171.426-171.426 171.426-94.676 0-171.426-76.75-171.426-171.426zM171.426 340.846c93.568 0 169.42-75.852 169.42-169.42 0-93.568-75.852-169.42-169.42-169.42-93.568 0-169.42 75.852-169.42 169.42 0 93.568 75.852 169.42 169.42 169.42z" fill="white" stroke="transparent"></path><ellipse rx="164.56874808852186" ry="164.56874808852186" cx="171.42577925887693" cy="171.42577925887693" fill="white" stroke="transparent" stroke-width="0" fill-opacity="1"></ellipse></g><g transform="matrix(1,0,0,1,64.84655864529837,150.33786757011063)"><svg viewBox="0 0 213.1584412271571 42.17582337753261" height="42.17582337753261" width="213.1584412271571"><g><svg viewBox="0 0 213.1584412271571 42.17582337753261" height="42.17582337753261" width="213.1584412271571"><g><svg viewBox="0 0 213.1584412271571 42.17582337753261" height="42.17582337753261" width="213.1584412271571"><g><svg viewBox="0 0 213.1584412271571 42.17582337753261" height="42.17582337753261" width="213.1584412271571"><g id="SvgjsG1021"><svg viewBox="0 0 213.1584412271571 42.17582337753261" height="42.17582337753261" width="213.1584412271571" id="SvgjsSvg1020"><g><svg viewBox="0 0 213.1584412271571 22.243740956339625" height="22.243740956339625" width="213.1584412271571"><g transform="matrix(1,0,0,1,0,0)"><svg width="213.1584412271571" viewBox="0.34375 -40.45 454.66625 47.45" height="22.243740956339625" data-palette-color="#000000"><path d="M28.15-1.2L17.15-34.8 6.2-1.2 6.2-1.25Q5.9-0.5 5.38-0.03 4.85 0.45 4.1 0.45L4.1 0.45Q3.7 0.45 3.33 0.38 2.95 0.3 2.55 0.2L2.55 0.2 2.6 0.2Q-0.25-0.7 0.5-3L0.5-3 11.9-37.65Q12.15-38.45 12.78-39 13.4-39.55 14.25-39.65L14.25-39.65Q15.1-39.8 15.9-39.88 16.7-39.95 17.15-39.95L17.15-39.95Q17.6-39.95 18.4-39.88 19.2-39.8 20.05-39.7L20.05-39.7Q20.75-39.6 21.43-38.95 22.1-38.3 22.45-37.65L22.45-37.65Q25.25-29.05 28.13-20.33 31-11.6 33.8-3L33.8-3Q34.5-0.7 31.7 0.2L31.7 0.2Q31.3 0.3 30.98 0.38 30.65 0.45 30.25 0.45L30.25 0.45Q29.55 0.45 28.98-0.03 28.4-0.5 28.15-1.25L28.15-1.25 28.15-1.2ZM20.9-12L20.9-12Q20.9-10.4 19.78-9.28 18.65-8.15 17.05-8.15L17.05-8.15Q15.45-8.15 14.35-9.28 13.25-10.4 13.25-12L13.25-12Q13.25-13.6 14.35-14.73 15.45-15.85 17.05-15.85L17.05-15.85Q18.65-15.85 19.78-14.73 20.9-13.6 20.9-12ZM43.35-21.75L43.35-2.1Q43.35 0.3 40.6 0.3L40.6 0.3Q37.85 0.3 37.85-2.1L37.85-2.1 37.85-22.2Q37.85-24.25 38.5-25.75 39.15-27.25 40.55-28.2L40.55-28.2Q43.2-30.1 45.85-30.1L45.85-30.1 53.9-30.1Q56.45-30.1 59.2-28.2L59.2-28.2Q61.9-26.3 61.9-22.2L61.9-22.2 61.9-2.1Q61.9 0.3 59.15 0.3L59.15 0.3Q56.4 0.3 56.4-2.1L56.4-2.1 56.4-21.75Q56.4-23.05 55.6-24.25L55.6-24.25 55.65-24.2Q55-25.4 53-25.4L53-25.4 46.75-25.4Q44.7-25.4 44.05-24.2L44.05-24.2Q43.35-23.15 43.35-21.75L43.35-21.75ZM73.85-21.75L73.85-2.1Q73.85 0.3 71.1 0.3L71.1 0.3Q68.35 0.3 68.35-2.1L68.35-2.1 68.35-22.2Q68.35-24.25 69-25.75 69.65-27.25 71.05-28.2L71.05-28.2Q73.7-30.1 76.35-30.1L76.35-30.1 84.4-30.1Q86.95-30.1 89.7-28.2L89.7-28.2Q92.4-26.3 92.4-22.2L92.4-22.2 92.4-2.1Q92.4 0.3 89.65 0.3L89.65 0.3Q86.9 0.3 86.9-2.1L86.9-2.1 86.9-21.75Q86.9-23.05 86.1-24.25L86.1-24.25 86.15-24.2Q85.5-25.4 83.5-25.4L83.5-25.4 77.25-25.4Q75.2-25.4 74.55-24.2L74.55-24.2Q73.85-23.15 73.85-21.75L73.85-21.75ZM112.94 0L106.39 0Q104.84 0 103.44-0.43 102.04-0.85 100.74-1.65L100.74-1.65 100.74-1.6Q98.29-3.15 98.29-7.3L98.29-7.3 98.29-9.75Q98.29-11.8 99.02-13.33 99.74-14.85 101.04-15.75L101.04-15.75 100.99-15.75Q102.24-16.6 103.64-17.03 105.04-17.45 106.34-17.45L106.34-17.45 117.39-17.45 117.39-22.1Q117.39-23.35 116.62-24.38 115.84-25.4 113.99-25.4L113.99-25.4 108.14-25.4Q106.24-25.4 105.52-24.48 104.79-23.55 104.79-22.3L104.79-22.3 104.79-21.9Q104.79-19.3 101.99-19.3L101.99-19.3Q99.19-19.3 99.19-21.9L99.19-21.9 99.19-22.35Q99.19-24.4 99.92-25.8 100.64-27.2 101.89-28.15L101.89-28.15 101.84-28.15Q103.14-29 104.57-29.55 105.99-30.1 107.29-30.1L107.29-30.1 114.89-30.1Q116.14-30.1 117.57-29.55 118.99-29 120.24-28.15L120.24-28.15 120.19-28.15Q121.49-27.2 122.19-25.68 122.89-24.15 122.89-22.15L122.89-22.15 122.89-2.1Q122.89 0.3 120.14 0.3L120.14 0.3Q119.59 0.3 119.12 0.25 118.64 0.2 118.27-0.03 117.89-0.25 117.67-0.68 117.44-1.1 117.44-1.8L117.44-1.8 117.39-12.75 107.29-12.75Q106.19-12.75 105.59-12.5 104.99-12.25 104.64-11.7L104.64-11.7Q104.24-10.85 104.07-10.38 103.89-9.9 103.89-9.3L103.89-9.3 103.89-7.35Q103.89-6.05 104.67-5.38 105.44-4.7 107.34-4.7L107.34-4.7 112.94-4.7Q114.79-4.7 114.79-2.35L114.79-2.35Q114.79-1.35 114.34-0.68 113.89 0 112.94 0L112.94 0ZM145.39 0L139.44 0Q137.64 0 137.54-2.35L137.54-2.35Q137.54-4.7 139.44-4.7L139.44-4.7 144.49-4.7Q146.34-4.7 147.12-5.75 147.89-6.8 147.89-8L147.89-8 147.89-22.1Q147.89-23.35 147.12-24.43 146.34-25.5 144.44-25.4L144.44-25.4 134.84-25.4 134.84 4.65Q134.84 7 132.09 7L132.09 7Q129.34 7 129.34 4.6L129.34 4.6 129.34-27.15Q129.34-28.9 130.24-29.5 131.14-30.1 132.44-30.1L132.44-30.1 145.39-30.1Q146.69-30.1 148.02-29.65 149.34-29.2 150.74-28.4L150.74-28.4Q151.94-27.55 152.67-26.03 153.39-24.5 153.39-22.45L153.39-22.45 153.39-7.65Q153.39-3.55 150.74-1.8L150.74-1.8Q147.94 0 145.39 0L145.39 0ZM167.64-30.1L175.64-30.1Q176.94-30.1 178.31-29.55 179.69-29 180.99-28.15L180.99-28.15 180.94-28.15Q182.24-27.2 182.94-25.68 183.64-24.15 183.64-22.15L183.64-22.15 183.64-7.95Q183.64-3.85 180.94-1.9L180.94-1.9Q178.29 0 175.64 0L175.64 0 167.64 0Q166.34 0 164.99-0.45 163.64-0.9 162.34-1.9L162.34-1.9Q159.64-3.8 159.64-7.95L159.64-7.95 159.64-22.15Q159.64-24.15 160.34-25.68 161.04-27.2 162.34-28.15L162.34-28.15 162.29-28.15Q163.54-29 164.94-29.55 166.34-30.1 167.64-30.1L167.64-30.1ZM168.54-4.7L174.74-4.7Q176.59-4.7 177.36-5.75 178.14-6.8 178.14-8L178.14-8 178.14-22.1Q178.14-23.35 177.36-24.38 176.59-25.4 174.74-25.4L174.74-25.4 168.54-25.4Q166.69-25.4 165.91-24.38 165.14-23.35 165.14-22.1L165.14-22.1 165.14-8Q165.14-6.8 165.91-5.75 166.69-4.7 168.54-4.7L168.54-4.7ZM197.94-30.1L205.94-30.1Q207.24-30.1 208.61-29.55 209.99-29 211.29-28.15L211.29-28.15 211.24-28.15Q212.54-27.2 213.24-25.68 213.94-24.15 213.94-22.15L213.94-22.15 213.94-7.95Q213.94-3.85 211.24-1.9L211.24-1.9Q208.59 0 205.94 0L205.94 0 197.94 0Q196.64 0 195.29-0.45 193.94-0.9 192.64-1.9L192.64-1.9Q189.94-3.8 189.94-7.95L189.94-7.95 189.94-22.15Q189.94-24.15 190.64-25.68 191.34-27.2 192.64-28.15L192.64-28.15 192.59-28.15Q193.84-29 195.24-29.55 196.64-30.1 197.94-30.1L197.94-30.1ZM198.84-4.7L205.04-4.7Q206.89-4.7 207.66-5.75 208.44-6.8 208.44-8L208.44-8 208.44-22.1Q208.44-23.35 207.66-24.38 206.89-25.4 205.04-25.4L205.04-25.4 198.84-25.4Q196.99-25.4 196.21-24.38 195.44-23.35 195.44-22.1L195.44-22.1 195.44-8Q195.44-6.8 196.21-5.75 196.99-4.7 198.84-4.7L198.84-4.7ZM225.63-22.75L225.63-2.1Q225.63 0.3 222.88 0.3L222.88 0.3Q220.03 0.3 220.03-2.1L220.03-2.1 220.03-22.8Q220.03-26.9 222.48-28.5L222.48-28.5Q224.93-30.1 228.13-30.1L228.13-30.1 233.83-30.1Q235.68-30.1 235.68-27.75L235.68-27.75Q235.78-25.4 233.83-25.4L233.83-25.4 228.53-25.4Q226.73-25.4 226.18-24.7 225.63-24 225.63-22.75L225.63-22.75ZM245.43-21.75L245.43-2.1Q245.43 0.3 242.68 0.3L242.68 0.3Q239.93 0.3 239.93-2.1L239.93-2.1 239.93-22.2Q239.93-24.25 240.58-25.75 241.23-27.25 242.63-28.2L242.63-28.2Q245.28-30.1 247.93-30.1L247.93-30.1 255.98-30.1Q258.53-30.1 261.28-28.2L261.28-28.2Q263.98-26.3 263.98-22.2L263.98-22.2 263.98-2.1Q263.98 0.3 261.23 0.3L261.23 0.3Q258.48 0.3 258.48-2.1L258.48-2.1 258.48-21.75Q258.48-23.05 257.68-24.25L257.68-24.25 257.73-24.2Q257.08-25.4 255.08-25.4L255.08-25.4 248.83-25.4Q246.78-25.4 246.13-24.2L246.13-24.2Q245.43-23.15 245.43-21.75L245.43-21.75ZM275.93-22.15L275.93-8Q275.93-6.8 276.7-5.75 277.48-4.7 279.33-4.7L279.33-4.7 285.58-4.7Q287.43-4.7 288.2-5.63 288.98-6.55 288.98-7.75L288.98-7.75 288.98-8.3Q288.98-10.65 291.73-10.65L291.73-10.65Q294.48-10.65 294.48-8.3L294.48-8.3 294.48-7.7Q294.48-5.6 293.8-4.25 293.13-2.9 291.78-1.9L291.78-1.9Q289.13 0 286.48 0L286.48 0 278.08 0Q275.43 0 272.93-1.9L272.93-1.9Q271.73-2.9 271.08-4.42 270.43-5.95 270.43-7.95L270.43-7.95 270.43-22.2Q270.43-26.25 272.93-28.2L272.93-28.2Q274.18-29.1 275.5-29.63 276.83-30.15 278.08-30.15L278.08-30.15 286.48-30.15Q287.68-30.15 289.13-29.68 290.58-29.2 291.83-28.4L291.83-28.4Q293.03-27.55 293.75-26.05 294.48-24.55 294.48-22.5L294.48-22.5 294.48-15.75Q294.48-14.6 293.8-13.7 293.13-12.8 291.33-12.8L291.33-12.8 280.53-12.8Q278.73-12.8 278.63-15.15L278.63-15.15Q278.63-17.5 280.53-17.5L280.53-17.5 289.03-17.5 288.98-22.15Q288.98-23.4 288.2-24.43 287.43-25.45 285.58-25.45L285.58-25.45 279.33-25.45Q277.48-25.45 276.7-24.43 275.93-23.4 275.93-22.15L275.93-22.15ZM309.73-17.5L317.08-17.5Q318.33-17.5 319.75-16.93 321.18-16.35 322.43-15.5L322.43-15.5 322.38-15.5Q323.68-14.55 324.38-13.05 325.08-11.55 325.08-9.45L325.08-9.45 325.08-7.95Q325.08-3.85 322.38-1.9L322.38-1.9Q321.08-0.9 319.73-0.45 318.38 0 317.08 0L317.08 0 308.58 0Q307.28 0 305.93-0.45 304.58-0.9 303.28-1.9L303.28-1.9Q300.58-3.8 300.58-7.95L300.58-7.95 300.58-8.55Q300.58-10.7 303.33-10.65L303.33-10.65Q306.13-10.65 306.13-8.55L306.13-8.55 306.13-8Q306.13-6.8 306.88-5.75 307.63-4.7 309.53-4.7L309.53-4.7 316.13-4.7Q318.03-4.7 318.78-5.75 319.53-6.8 319.53-8L319.53-8 319.53-9.4Q319.53-10.05 319.35-10.65 319.18-11.25 318.78-11.73 318.38-12.2 317.73-12.5 317.08-12.8 316.13-12.8L316.13-12.8 308.83-12.8Q306.28-12.8 303.48-14.6L303.48-14.6Q300.83-16.3 300.83-20.45L300.83-20.45 300.83-22.15Q300.83-24.15 301.53-25.68 302.23-27.2 303.53-28.15L303.53-28.15 303.48-28.15Q304.73-29 306.13-29.55 307.53-30.1 308.83-30.1L308.83-30.1 316.83-30.1Q318.13-30.1 319.5-29.55 320.88-29 322.18-28.15L322.18-28.15 322.13-28.15Q323.43-27.2 324.13-25.68 324.83-24.15 324.83-22.15L324.83-22.15 324.83-21.7Q324.83-20.65 324.13-20.18 323.43-19.7 322.08-19.65L322.08-19.65Q319.33-19.6 319.33-21.7L319.33-21.7 319.33-22.1Q319.33-23.35 318.55-24.38 317.78-25.4 315.93-25.4L315.93-25.4 309.73-25.4Q307.88-25.4 307.1-24.38 306.33-23.35 306.33-22.1L306.33-22.1 306.33-20.9Q306.33-19.6 307.1-18.55 307.88-17.5 309.73-17.5L309.73-17.5ZM337.07-25.4L337.07-2.1Q337.07 0.3 334.32 0.3L334.32 0.3Q331.57 0.3 331.57-2.1L331.57-2.1 331.57-37.6Q331.57-40 334.32-40L334.32-40Q337.07-40 337.07-37.6L337.07-37.6 337.07-30.1 347.62-30.1Q350.17-30.1 352.92-28.2L352.92-28.2Q355.62-26.3 355.62-22.2L355.62-22.2 355.62-2.1Q355.62 0.3 352.87 0.3L352.87 0.3Q350.12 0.3 350.12-2.1L350.12-2.1 350.12-21.75Q350.12-23.05 349.32-24.25L349.32-24.25 349.37-24.2Q348.72-25.4 346.72-25.4L346.72-25.4 337.07-25.4ZM376.27-15.6L372.72-1.55 372.77-1.6Q372.42-0.45 371.42-0.1 370.42 0.25 369.42 0.25L369.42 0.25Q368.47 0.25 367.44-0.1 366.42-0.45 366.12-1.6L366.12-1.6 366.17-1.55 359.62-27.45Q359.02-29.55 361.57-30.25L361.57-30.25Q364.02-30.9 364.72-28.55L364.72-28.55 364.72-28.6 368.77-12.3 370.12-12.3 374.17-28.6Q374.42-29.65 375.3-29.98 376.17-30.3 376.92-30.3L376.92-30.3Q377.77-30.3 378.6-29.93 379.42-29.55 379.72-28.6L379.72-28.6Q380.17-26.8 380.55-25.25 380.92-23.7 381.27-22.25 381.62-20.8 381.94-19.4 382.27-18 382.67-16.5L382.67-16.5 383.77-12.25 385.12-12.25Q386.12-16.3 387.15-20.43 388.17-24.55 389.17-28.6L389.17-28.6 389.12-28.55Q389.82-30.9 392.27-30.25L392.27-30.25Q394.82-29.65 394.22-27.45L394.22-27.45 387.72-1.55 387.77-1.6Q387.47-0.45 386.44-0.1 385.42 0.25 384.42 0.25L384.42 0.25Q383.47 0.25 382.47-0.1 381.47-0.45 381.12-1.6L381.12-1.6 381.17-1.55 377.62-15.6 376.27-15.6ZM412.22 0L405.67 0Q404.12 0 402.72-0.43 401.32-0.85 400.02-1.65L400.02-1.65 400.02-1.6Q397.57-3.15 397.57-7.3L397.57-7.3 397.57-9.75Q397.57-11.8 398.29-13.33 399.02-14.85 400.32-15.75L400.32-15.75 400.27-15.75Q401.52-16.6 402.92-17.03 404.32-17.45 405.62-17.45L405.62-17.45 416.67-17.45 416.67-22.1Q416.67-23.35 415.89-24.38 415.12-25.4 413.27-25.4L413.27-25.4 407.42-25.4Q405.52-25.4 404.79-24.48 404.07-23.55 404.07-22.3L404.07-22.3 404.07-21.9Q404.07-19.3 401.27-19.3L401.27-19.3Q398.47-19.3 398.47-21.9L398.47-21.9 398.47-22.35Q398.47-24.4 399.19-25.8 399.92-27.2 401.17-28.15L401.17-28.15 401.12-28.15Q402.42-29 403.84-29.55 405.27-30.1 406.57-30.1L406.57-30.1 414.17-30.1Q415.42-30.1 416.84-29.55 418.27-29 419.52-28.15L419.52-28.15 419.47-28.15Q420.77-27.2 421.47-25.68 422.17-24.15 422.17-22.15L422.17-22.15 422.17-2.1Q422.17 0.3 419.42 0.3L419.42 0.3Q418.87 0.3 418.39 0.25 417.92 0.2 417.54-0.03 417.17-0.25 416.94-0.68 416.72-1.1 416.72-1.8L416.72-1.8 416.67-12.75 406.57-12.75Q405.47-12.75 404.87-12.5 404.27-12.25 403.92-11.7L403.92-11.7Q403.52-10.85 403.34-10.38 403.17-9.9 403.17-9.3L403.17-9.3 403.17-7.35Q403.17-6.05 403.94-5.38 404.72-4.7 406.62-4.7L406.62-4.7 412.22-4.7Q414.07-4.7 414.07-2.35L414.07-2.35Q414.07-1.35 413.62-0.68 413.17 0 412.22 0L412.22 0ZM434.01-22.75L434.01-2.1Q434.01 0.3 431.26 0.3L431.26 0.3Q428.42 0.3 428.42-2.1L428.42-2.1 428.42-22.8Q428.42-26.9 430.87-28.5L430.87-28.5Q433.31-30.1 436.51-30.1L436.51-30.1 442.21-30.1Q444.06-30.1 444.06-27.75L444.06-27.75Q444.17-25.4 442.21-25.4L442.21-25.4 436.92-25.4Q435.12-25.4 434.56-24.7 434.01-24 434.01-22.75L434.01-22.75ZM453.96-27.9L453.96-2.1Q453.96 0.3 451.21 0.3L451.21 0.3Q448.41 0.3 448.41-2.1L448.41-2.1 448.41-27.9Q448.41-30.3 451.21-30.3L451.21-30.3Q453.96-30.3 453.96-27.9L453.96-27.9ZM455.01-36.6L455.01-36.6Q455.01-35 453.91-33.9 452.81-32.8 451.21-32.8L451.21-32.8Q449.61-32.8 448.49-33.9 447.36-35 447.36-36.6L447.36-36.6Q447.36-38.25 448.49-39.35 449.61-40.45 451.21-40.45L451.21-40.45Q452.81-40.45 453.91-39.35 455.01-38.25 455.01-36.6Z" opacity="1" transform="matrix(1,0,0,1,0,0)" fill="black" class="wordmark-text-0" id="SvgjsPath1019"></path></svg></g></svg></g><g transform="matrix(1,0,0,1,0,27.494954346348457)"><svg viewBox="0 0 41.44075010683765 14.680869031184153" height="14.680869031184153" width="41.44075010683765"><g transform="matrix(1,0,0,1,0,0)"><svg width="41.44075010683765" viewBox="1.75 -39.65 142.53 50.5" height="14.680869031184153" data-palette-color="#000000"><path d="M15.25-35.25Q18.1-35.25 20.35-34.23 22.6-33.2 24.6-31.25L24.6-31.25 21.4-27.95Q19.85-29.3 18.5-29.88 17.15-30.45 15.45-30.45L15.45-30.45Q12.15-30.45 10.28-27.5 8.4-24.55 8.4-17.3L8.4-17.3Q8.4-12.2 9.08-9.33 9.75-6.45 11.08-5.3 12.4-4.15 14.55-4.15L14.55-4.15Q16.8-4.15 18.65-5.4L18.65-5.4 18.65-14.75 14.75-14.75 14.1-19.5 24.7-19.5 24.7-2.6Q22.55-1.05 19.93-0.18 17.3 0.7 14.6 0.7L14.6 0.7Q8.15 0.7 4.95-3.68 1.75-8.05 1.75-17.3L1.75-17.3Q1.75-23.3 3.53-27.33 5.3-31.35 8.35-33.3 11.4-35.25 15.25-35.25L15.25-35.25ZM29.75-26.45L35.9-26.45 35.9 0 29.75 0 29.75-26.45ZM32.8-39.65Q34.45-39.65 35.47-38.6 36.5-37.55 36.5-35.9L36.5-35.9Q36.5-34.3 35.47-33.25 34.45-32.2 32.8-32.2L32.8-32.2Q31.15-32.2 30.12-33.25 29.1-34.3 29.1-35.9L29.1-35.9Q29.1-37.55 30.12-38.6 31.15-39.65 32.8-39.65L32.8-39.65ZM53.25-27.1Q54.4-27.1 55.3-26.75L55.3-26.75 54.3-20.85Q53.3-21.1 52.45-21.1L52.45-21.1Q50.55-21.1 49.45-19.45 48.35-17.8 47.75-14.55L47.75-14.55 47.75 0 41.6 0 41.6-26.45 46.95-26.45 47.4-21.85Q49.25-27.1 53.25-27.1L53.25-27.1ZM63.74 0.75Q61.04 0.75 59.47-0.93 57.89-2.6 57.89-5.4L57.89-5.4 57.89-37.05 64.04-37.7 64.04-5.65Q64.04-5 64.34-4.6 64.64-4.2 65.24-4.2L65.24-4.2Q65.59-4.2 65.92-4.3 66.24-4.4 66.34-4.4L66.34-4.4 67.54-0.2Q65.84 0.75 63.74 0.75L63.74 0.75ZM77.94-27.15Q82.64-27.15 85.89-24.05L85.89-24.05 83.54-20.7Q82.14-21.7 80.89-22.2 79.64-22.7 78.34-22.7L78.34-22.7Q76.89-22.7 76.07-21.93 75.24-21.15 75.24-19.8L75.24-19.8Q75.24-18.45 76.17-17.63 77.09-16.8 79.89-15.7L79.89-15.7Q83.34-14.35 84.99-12.5 86.64-10.65 86.64-7.55L86.64-7.55Q86.64-3.7 83.94-1.48 81.24 0.75 77.09 0.75L77.09 0.75Q74.39 0.75 72.12-0.23 69.84-1.2 68.14-2.95L68.14-2.95 71.14-6.25Q73.94-3.8 76.84-3.8L76.84-3.8Q78.49-3.8 79.44-4.67 80.39-5.55 80.39-7.1L80.39-7.1Q80.39-8.25 79.99-8.97 79.59-9.7 78.59-10.33 77.59-10.95 75.59-11.7L75.59-11.7Q72.14-13.05 70.67-14.85 69.19-16.65 69.19-19.45L69.19-19.45Q69.19-22.8 71.57-24.98 73.94-27.15 77.94-27.15L77.94-27.15ZM108.39-34.55Q114.64-34.55 117.91-31.78 121.19-29 121.19-23.6L121.19-23.6Q121.19-17.85 117.96-15 114.74-12.15 108.84-12.15L108.84-12.15 106.84-12.15 106.84 0 100.49 0 100.49-34.55 108.39-34.55ZM108.49-16.9Q111.74-16.9 113.19-18.4 114.64-19.9 114.64-23.55L114.64-23.55Q114.64-26.85 113.19-28.35 111.74-29.85 108.54-29.85L108.54-29.85 106.84-29.85 106.84-16.9 108.49-16.9ZM142.73-29.85L144.28-25.1Q143.23-24.6 141.76-24.4 140.28-24.2 138.08-24.2L138.08-24.2Q140.18-23.2 141.21-21.53 142.23-19.85 142.23-17.4L142.23-17.4Q142.23-13.4 139.78-10.95 137.33-8.5 133.13-8.5L133.13-8.5Q131.88-8.5 130.58-8.9L130.58-8.9Q129.68-8.15 129.68-6.85L129.68-6.85Q129.68-5.85 130.23-5.35 130.78-4.85 132.28-4.85L132.28-4.85 135.08-4.85Q139.08-4.85 141.43-2.78 143.78-0.7 143.78 2.5L143.78 2.5Q143.78 6.3 140.86 8.58 137.93 10.85 132.53 10.85L132.53 10.85Q126.83 10.85 124.56 8.75 122.28 6.65 122.28 2.6L122.28 2.6 127.73 2.6Q127.73 4.75 128.73 5.65 129.73 6.55 132.58 6.55L132.58 6.55Q135.33 6.55 136.48 5.6 137.63 4.65 137.63 2.9L137.63 2.9Q137.63 1.2 136.68 0.4 135.73-0.4 133.73-0.4L133.73-0.4 131.83-0.4Q128.03-0.4 126.28-1.75 124.53-3.1 124.53-5.45L124.53-5.45Q124.53-6.8 125.26-8.03 125.98-9.25 127.23-10.2L127.23-10.2Q125.18-11.5 124.23-13.3 123.28-15.1 123.28-17.7L123.28-17.7Q123.28-22.05 125.88-24.58 128.48-27.1 132.88-27.1L132.88-27.1Q136.13-27.1 138.26-27.8 140.38-28.5 142.73-29.85L142.73-29.85ZM132.88-23Q131.13-23 130.23-21.75 129.33-20.5 129.33-17.8L129.33-17.8Q129.33-15.25 130.23-13.88 131.13-12.5 132.83-12.5L132.83-12.5Q134.58-12.5 135.43-13.73 136.28-14.95 136.28-17.85L136.28-17.85Q136.28-20.55 135.46-21.78 134.63-23 132.88-23L132.88-23Z" opacity="1" transform="matrix(1,0,0,1,0,0)" fill="black" class="slogan-text-1" id="SvgjsPath1018"></path></svg></g></svg></g></svg></g></svg></g><g></g></svg></g></svg></g></svg></g></svg></g><defs><mask></mask></defs></svg><rect width="342.85155851775386" height="342.85155851775386" fill="black" stroke="none" visibility="hidden"></rect></g></mask><linearGradient x1="0.054" x2="0.941" y1="0.5" y2="0.5" id="6f5d3810-56a8-42b5-afa5-b1fb262af63f"><stop stop-color="#9c7945" offset="0"></stop><stop stop-color="#faf3aa" offset="0.498"></stop><stop stop-color="#9c7945" offset="1"></stop></linearGradient></svg><rect width="342.85155851775386" height="342.85155851775386" fill="none" stroke="none" visibility="hidden"></rect></g></svg></g></svg>